/* XPM */
static char *_fb2fc16ed854ed0bc9abb538a106670dpQGv3p1W8XPMrGL[] = {
"64 64 12 1 ",
"  c #937676",
". c gray10",
"X c #452E25",
"o c #58362A",
"O c #6E492F",
"+ c #A84D00",
"@ c #D28100",
"# c #EBBB00",
"$ c #FDFF00",
"% c #B38047",
"& c #D09F69",
"* c #FFFFBB",
"                                                                ",
"                                                                ",
"                                                                ",
"                                                                ",
"                                                                ",
"                                                                ",
"                                                                ",
"                                                                ",
"                                                                ",
"                                                                ",
"                                                                ",
"                                                                ",
"                                                                ",
"                                                                ",
"                                                                ",
"                                                                ",
"            ........................................            ",
"            ........................................            ",
"            ........................................            ",
"            ........................................            ",
"        ....########%%%%%%%%%%%%%%%%%%%%%%%%########....        ",
"        ....########%%%%%%%%%%%%%%%%%%%%%%%%########....        ",
"        ....########%%%%%%%%%%%%%%%%%%%%%%%%########....        ",
"        ....########%%%%%%%%%%%%%%%%%%%%%%%%########....        ",
"    ....@@@@********&&&&&&&&&&&&&&&&&&&&&&&&********@@@@....    ",
"    ....@@@@********&&&&&&&&&&&&&&&&&&&&&&&&********@@@@....    ",
"    ....@@@@********&&&&&&&&&&&&&&&&&&&&&&&&********@@@@....    ",
"    ....@@@@********&&&&&&&&&&&&&&&&&&&&&&&&********@@@@....    ",
"    ....####********%%%%%%%%%%%%%%%%%%%%%%%%********####....    ",
"    ....####********%%%%%%%%%%%%%%%%%%%%%%%%********####....    ",
"    ....####********%%%%%%%%%%%%%%%%%%%%%%%%********####....    ",
"    ....####********%%%%%%%%%%%%%%%%%%%%%%%%********####....    ",
"    ....####$$$$$$$$&&&&&&&&&&&&&&&&&&&&&&&&$$$$$$$$####....    ",
"    ....####$$$$$$$$&&&&&&&&&&&&&&&&&&&&&&&&$$$$$$$$####....    ",
"    ....####$$$$$$$$&&&&&&&&&&&&&&&&&&&&&&&&$$$$$$$$####....    ",
"    ....####$$$$$$$$&&&&&&&&&&&&&&&&&&&&&&&&$$$$$$$$####....    ",
"    ....$$$$########%%%%****************%%%%########$$$$....    ",
"    ....$$$$########%%%%****************%%%%########$$$$....    ",
"    ....$$$$########%%%%****************%%%%########$$$$....    ",
"    ....$$$$########%%%%****************%%%%########$$$$....    ",
"    ....****************$$$$$$$$$$$$$$$$****************....    ",
"    ....****************$$$$$$$$$$$$$$$$****************....    ",
"    ....****************$$$$$$$$$$$$$$$$****************....    ",
"    ....****************$$$$$$$$$$$$$$$$****************....    ",
"    ....@@@@@@@@@@@@++++####XXXXXXXX####++++@@@@@@@@@@@@....    ",
"    ....@@@@@@@@@@@@++++####XXXXXXXX####++++@@@@@@@@@@@@....    ",
"    ....@@@@@@@@@@@@++++####XXXXXXXX####++++@@@@@@@@@@@@....    ",
"    ....@@@@@@@@@@@@++++####XXXXXXXX####++++@@@@@@@@@@@@....    ",
"        ....++++++++oooo@@@@@@@@@@@@@@@@oooo++++++++....        ",
"        ....++++++++oooo@@@@@@@@@@@@@@@@oooo++++++++....        ",
"        ....++++++++oooo@@@@@@@@@@@@@@@@oooo++++++++....        ",
"        ....++++++++oooo@@@@@@@@@@@@@@@@oooo++++++++....        ",
"        ....@@@@@@@@OOOOOOOOOOOOOOOOOOOOOOOO@@@@@@@@....        ",
"        ....@@@@@@@@OOOOOOOOOOOOOOOOOOOOOOOO@@@@@@@@....        ",
"        ....@@@@@@@@OOOOOOOOOOOOOOOOOOOOOOOO@@@@@@@@....        ",
"        ....@@@@@@@@OOOOOOOOOOOOOOOOOOOOOOOO@@@@@@@@....        ",
"        ................................................        ",
"        ................................................        ",
"        ................................................        ",
"        ................................................        ",
"                                                                ",
"                                                                ",
"                                                                ",
"                                                                ",
};
