/* XPM */
static char * exit_xpm[] = {
"64 64 6 1",
" 	c None",
".	c #937676",
"+	c #75593F",
"@	c #A19071",
"#	c #BDAD8F",
"$	c #470000",
"................................................................",
"................................................................",
"................................................................",
"................................................................",
"................................................................",
"................................................................",
"........++@@################################@@@@++..............",
"........++@@################################@@@@++..............",
"....++@@##############@@@@##########################@@++........",
"....++@@##############@@@@##########################@@++........",
"....@@##################################################........",
"....@@##################################################........",
"....########@@@@############@@++++++++@@################++......",
"....########@@@@############@@++++++++@@################++......",
"....##############@@++++++++++########++@@##@@@@########@@++....",
"....##############@@++++++++++########++@@##@@@@########@@++....",
"....########@@++++++##########@@########++################@@....",
"....########@@++++++##########@@########++################@@....",
"....########++##############@@##@@########@@################....",
"....########++##############@@##@@########@@################....",
"....########++############@@######@@######++##@@@@##########....",
"....########++############@@######@@######++##@@@@##########....",
"....########++##############$$##$$########++################....",
"....########++##############$$##$$########++################....",
"....##@@@@##++####@@@@########$$##########++################....",
"....##@@@@##++####@@@@########$$##########++################....",
"....########++##############$$##$$########++################....",
"....########++##############$$##$$########++################....",
"....########@@++########@@@@##@@@@@@@@####++####@@##########....",
"....########@@++########@@@@##@@@@@@@@####++####@@##########....",
"....##########@@++######@@################++######@@########....",
"....##########@@++######@@################++######@@########....",
"....############++########@@######@@######++################....",
"....############++########@@######@@######++################....",
"....@@####@@####@@########@@##@@@@@@######++################....",
"....@@####@@####@@########@@##@@@@@@######++################....",
"....++######@@####@@####################++@@####$$##########....",
"....++######@@####@@####################++@@####$$##########....",
"......++##########++################++++@@####$$$$$$########....",
"......++##########++################++++@@####$$$$$$########....",
"........##########++##############++@@######$$##$$##$$######....",
"........##########++##############++@@######$$##$$##$$######....",
"........##########++##############++############$$##########....",
"........##########++##############++############$$##########....",
"........##########@@##########++@@######@@######$$########@@....",
"........##########@@##########++@@######@@######$$########@@....",
"........############@@++++++@@########@@########$$########@@....",
"........############@@++++++@@########@@########$$########@@....",
"........########################@@######################@@++....",
"........########################@@######################@@++....",
"........@@##########@@##@@####@@######################@@++......",
"........@@##########@@##@@####@@######################@@++......",
"........++@@######################################@@@@++........",
"........++@@######################################@@@@++........",
"..........++@@##########################@@++....................",
"..........++@@##########################@@++....................",
"................................................................",
"................................................................",
"................................................................",
"................................................................",
"................................................................",
"................................................................",
"................................................................",
"................................................................",
};
