/* XPM */
static char * Head_xpm[] = {
"32 32 17 1",
" 	c None",
".	c #937676",
"+	c #21150A",
"@	c #633F20",
"#	c #B6743B",
"$	c #C88C57",
"%	c #DBB390",
"&	c #E2C3A7",
"*	c #CD9666",
"=	c #E6CAB1",
"-	c #9D6432",
";	c #7F0000",
">	c #452C16",
",	c #B5704D",
"'	c #FFFFFF",
")	c #D28560",
"!	c #D5D5D5",
"................................",
"................................",
"................................",
"................................",
"...........++++++++++...........",
".........++@#$%%%$$#@++.........",
"........+@$%%%%%%%%$$#@+........",
".......+@$%%%%%%%%%%%$$@+.......",
".......+$%%&&&%%%%%%%%$#+.......",
"......+@%%%&&&%%%%%%%%$$@+......",
"......+#%%%&&&%%%%%%%%%$#+......",
"......+$%%%%%%%%%%%%%%%$$+......",
"......+$%%%%%%%%%%%%%%%$$+......",
"...++.+$%%%%%%%%%%%%%%%$$+.++...",
"...+%++#%%%%%%%%%%%%%%%$#++%+...",
"....+%@#$%%%%%%%%%%%%%$$#@%+....",
"....+%%#$$%&&%%%%%%&&$$$#%%+....",
".....+%#$$#@@$%%%%$@@#$#$%+.....",
".....+%%#$*++*$%%$*++*$#%%+.....",
"......+%#$=+-=%%%%=-+=$#%+......",
".......+#$;>>=%%%%=>>%$#+.......",
"........@#;%%%%%%%%%;%#@........",
".........@$%,'),,)',%$@.........",
"..........@@;!%%%%!$@@;;;;;;;...",
"........;;;$@@@@@@@@$;;.........",
"......;;;;;;;;;;;;;;;;;;;;......",
"...........;;;;;;;;;;;..........",
"................................",
"................................",
"................................",
"................................",
"................................"};
